<?xml version="1.0" encoding="UTF-8"?><svg id="Layer_1" xmlns="http://www.w3.org/2000/svg" viewBox="0 0 454.87 454.87"><path d="M315.64,269.23c45.46-67.25,38.83-159.12-20.84-218.79C227.56-16.81,117.69-16.81,50.44,50.44c-67.25,67.25-67.25,176.17,0,243.42,59.67,59.67,151.55,66.3,218.79,20.84,23.68,35.04,98.5,140.18,143.02,140.18,15.16,0,42.62-27.47,42.62-42.62,0-44.52-105.14-119.34-139.23-143.02h0Zm-53.04-6.63c-50.2,50.2-130.71,50.2-180.91,0s-50.2-130.71,0-180.91,130.71-50.2,180.91,0,50.2,131.65,0,180.91Z"/></svg>