<?xml version="1.0" standalone="no"?>
<!DOCTYPE svg PUBLIC "-//W3C//DTD SVG 20010904//EN"
 "http://www.w3.org/TR/2001/REC-SVG-20010904/DTD/svg10.dtd">
<svg version="1.0" xmlns="http://www.w3.org/2000/svg"
 width="1024.000000pt" height="1024.000000pt" viewBox="0 0 1024.000000 1024.000000"
 preserveAspectRatio="xMidYMid meet">
<metadata>
Created by potrace 1.14, written by Peter Selinger 2001-2017
</metadata>
<g transform="translate(0.000000,1024.000000) scale(0.100000,-0.100000)"
fill="#000000" stroke="none">
<path d="M7050 8051 c-474 -104 -688 -170 -830 -256 -117 -71 -483 -304 -577
-367 l-72 -48 -53 14 c-45 12 -58 12 -88 -1 -49 -20 -53 -24 -186 -208 -88
-121 -124 -165 -140 -165 -31 0 -131 -37 -183 -67 -138 -79 -319 -290 -474
-553 -66 -113 -81 -164 -73 -245 l6 -61 -795 -324 -796 -325 -287 -238 c-354
-295 -364 -304 -365 -349 -2 -68 7 -74 412 -258 l381 -173 1 -736 c0 -543 3
-745 12 -771 7 -20 25 -41 42 -51 45 -26 2032 -819 2052 -819 10 0 480 185
1045 411 727 290 1033 417 1043 432 13 19 15 125 15 777 l0 755 388 175 c379
172 387 177 406 215 19 38 19 39 0 74 -12 22 -123 122 -304 274 -157 131 -298
248 -315 260 -16 12 -345 151 -730 308 -384 158 -701 291 -703 297 -1 5 8 26
22 46 32 48 85 194 92 259 9 82 -17 178 -95 349 -39 85 -71 165 -71 177 0 13
7 48 16 78 10 35 14 70 10 97 l-7 43 243 161 c309 204 460 294 562 333 94 36
363 107 551 145 72 14 140 32 152 40 40 25 38 68 -6 188 -22 60 -46 115 -53
122 -26 26 -75 23 -248 -15z m159 -175 c-2 -2 -87 -22 -189 -46 -220 -50 -379
-97 -474 -140 -99 -44 -254 -138 -549 -333 l-258 -170 -32 31 c-17 17 -29 33
-26 35 2 2 105 72 229 154 254 169 442 286 510 315 86 38 296 98 500 143 113
25 221 49 240 53 31 7 36 6 44 -16 4 -13 6 -25 5 -26z m-1743 -654 c-17 -16
-18 -16 -5 5 7 12 15 20 18 17 3 -2 -3 -12 -13 -22z m-16 -26 c0 -2 -8 -10
-17 -17 -16 -13 -17 -12 -4 4 13 16 21 21 21 13z m-560 -459 c0 -2 -12 -14
-27 -28 l-28 -24 24 28 c23 25 31 32 31 24z m-50 -60 c0 -2 -10 -12 -22 -23
l-23 -19 19 23 c18 21 26 27 26 19z m236 -699 c-41 -83 -21 -275 55 -536 17
-59 41 -129 54 -156 l23 -49 -66 7 c-90 9 -242 47 -242 60 0 15 160 698 166
708 3 4 11 8 18 8 10 0 8 -11 -8 -42z m348 -15 c26 -20 54 -49 62 -64 30 -59
13 -223 -40 -376 -26 -77 -94 -213 -106 -213 -20 0 -120 373 -134 500 -10 91
0 110 83 153 40 20 76 37 80 37 4 0 29 -17 55 -37z m-1025 -458 c-114 -524
-113 -514 -91 -573 34 -91 115 -115 387 -113 255 1 671 27 730 45 65 20 135
66 172 114 38 51 94 195 205 530 73 222 96 282 108 279 9 -2 252 -100 541
-218 l525 -214 -960 -392 c-527 -216 -966 -393 -975 -393 -19 0 -1943 784
-1933 788 4 1 315 128 692 281 377 154 686 278 687 278 1 -1 -39 -187 -88
-412z m-834 -558 c943 -384 1267 -517 1282 -525 8 -5 -60 -80 -210 -229 l-222
-221 -360 164 c-198 90 -645 293 -993 451 -348 158 -631 290 -630 294 4 13
422 358 428 354 3 -1 320 -131 705 -288z m3920 74 c88 -74 161 -137 163 -140
1 -4 -359 -171 -800 -371 -442 -200 -888 -403 -993 -451 l-190 -87 -222 221
c-152 152 -218 224 -210 229 8 4 306 126 663 272 357 145 802 327 989 404
l340 140 50 -42 c28 -23 122 -102 210 -175z m-3700 -982 c446 -203 631 -282
658 -283 36 -1 47 9 267 229 l230 230 0 -957 0 -957 -27 10 c-16 5 -419 166
-898 357 l-870 348 -3 658 c-2 525 0 657 10 653 7 -3 292 -132 633 -288z
m3153 -365 l-3 -656 -860 -344 c-473 -189 -877 -351 -897 -359 l-38 -15 0 957
0 958 230 -230 c220 -220 231 -230 267 -229 27 1 214 81 663 287 344 157 628
286 633 286 4 1 6 -294 5 -655z"/>
</g>
</svg>
