<?xml version="1.0" encoding="UTF-8"?><svg id="Layer_1" xmlns="http://www.w3.org/2000/svg" xmlns:xlink="http://www.w3.org/1999/xlink" viewBox="0 0 743.73 578.69"><defs><style>.cls-1{fill:#d92938;}.cls-2{fill:#3d90d9;stroke-width:2px;}.cls-2,.cls-3,.cls-4{stroke-miterlimit:10;}.cls-2,.cls-4{stroke:#3d90d9;}.cls-3{fill:#d92546;stroke:#d92546;stroke-width:4px;}.cls-5{fill:#f2c49b;}.cls-4{stroke-width:12px;}.cls-4,.cls-6{fill:none;}.cls-7{fill:#d9a384;}.cls-8{clip-path:url(#clippath);}.cls-9{fill:#3d80d9;}</style><clipPath id="clippath"><rect class="cls-6" x="318.98" y="27.8" width="186.98" height="121.6" transform="translate(-5.85 143.28) rotate(-19.57)"/></clipPath></defs><g><path class="cls-3" d="M95.86,317.16c14.08,0,24.08,3.09,30.01,9.26,4.45,4.69,6.67,10.62,6.67,17.78,0,2.47-.25,5.06-.74,7.78l-1.67,8.89c-1.36,7.04-3.98,12.53-7.87,16.49-3.89,3.95-7.32,5.93-10.28,5.93l-.19,1.48c3.46,0,6.98,1.92,10.56,5.74,3.58,3.83,5.37,8.33,5.37,13.52,0,2.1-.25,4.32-.74,6.67l-1.11,5.74c-1.98,10.62-6.7,18.96-14.17,25-7.47,6.05-17.87,9.08-31.21,9.08H18.62l23.52-133.36h53.71Zm-16.67,78.91h-17.6l-4.45,25.56h18.34c5.68,0,10.19-1.33,13.52-3.98,3.33-2.65,5-5.9,5-9.72,0-7.9-4.94-11.85-14.82-11.85Zm5-50.01h-13.89l-4.82,27.6h13.71c11.85,0,17.78-5.19,17.78-15.56,0-3.58-1.08-6.48-3.24-8.71-2.16-2.22-5.34-3.33-9.54-3.33Z"/><path class="cls-3" d="M197.18,317.16l-23.34,133.36h-33.53l23.52-133.36h33.34Z"/><path class="cls-3" d="M246.45,453.12c-17.54,0-29.64-4.07-36.3-12.22-4.57-5.68-6.85-13.46-6.85-23.34,0-4.57,.49-9.57,1.48-15l6.48-37.04c5.8-33.09,26.05-49.64,60.75-49.64,14.32,0,25.19,3.06,32.6,9.17s11.11,14.48,11.11,25.1c0,4.32-.59,8.71-1.76,13.15-1.17,4.45-2.31,7.78-3.43,10l-1.85,3.33h-32.78c3.21-4.45,4.82-9.57,4.82-15.37,0-11.11-4.63-16.67-13.89-16.67-12.47,0-19.94,7.22-22.41,21.67l-6.3,35.56c-.62,3.33-.93,6.61-.93,9.82,0,8.52,5.03,12.78,15.1,12.78s16.51-5.06,19.36-15.19h-15.19l3.7-20.56h49.08l-2.96,15.93-.93,5.37c-5.19,28.77-24.82,43.16-58.9,43.16Z"/><path class="cls-3" d="M441.85,317.16c14.08,0,24.08,3.09,30.01,9.26,4.45,4.69,6.67,10.62,6.67,17.78,0,2.47-.25,5.06-.74,7.78l-1.67,8.89c-1.36,7.04-3.98,12.53-7.87,16.49-3.89,3.95-7.32,5.93-10.28,5.93l-.19,1.48c3.46,0,6.97,1.92,10.56,5.74,3.58,3.83,5.37,8.33,5.37,13.52,0,2.1-.25,4.32-.74,6.67l-1.11,5.74c-1.98,10.62-6.7,18.96-14.17,25-7.47,6.05-17.87,9.08-31.21,9.08h-61.86l23.52-133.36h53.71Zm-16.67,78.91h-17.6l-4.45,25.56h18.34c5.68,0,10.19-1.33,13.52-3.98,3.33-2.65,5-5.9,5-9.72,0-7.9-4.94-11.85-14.82-11.85Zm5-50.01h-13.89l-4.82,27.6h13.71c11.85,0,17.78-5.19,17.78-15.56,0-3.58-1.08-6.48-3.24-8.71-2.16-2.22-5.34-3.33-9.54-3.33Z"/><path class="cls-3" d="M558.36,315.87c29.76,0,44.64,12.16,44.64,36.49,0,4.08-.43,8.46-1.3,13.15l-6.48,37.04c-2.96,17.16-9.39,29.88-19.26,38.16-9.88,8.27-23.77,12.41-41.67,12.41s-30.38-4.14-37.42-12.41c-4.82-5.68-7.22-13.52-7.22-23.52,0-4.45,.49-9.32,1.48-14.63l6.48-37.04c5.8-33.09,26.05-49.64,60.75-49.64Zm-19.08,108.54c6.17,0,11.11-1.6,14.82-4.82,3.71-3.21,6.3-9.14,7.78-17.78l6.3-35.56c.37-2.47,.56-4.69,.56-6.67,0-10-5.06-15-15.19-15-12.72,.25-20.31,7.47-22.78,21.67l-6.3,35.56c-.49,3.09-.74,6.3-.74,9.63,0,8.64,5.19,12.96,15.56,12.96Z"/><path class="cls-3" d="M741.73,317.16l-52.23,67.24,28.71,66.12h-37.97l-18.15-42.6-30.56,42.6h-37.97l49.08-66.12-25.56-67.24h37.97l15.37,43.34,33.34-43.34h37.97Z"/></g><g><path class="cls-2" d="M29.3,534.93c-9.92,0-16.77-2.31-20.54-6.92-2.59-3.21-3.88-7.62-3.88-13.21,0-2.58,.28-5.42,.84-8.49l3.67-20.96c3.28-18.73,14.74-28.09,34.38-28.09,8.11,0,14.26,1.73,18.45,5.19,4.19,3.46,6.29,8.19,6.29,14.2,0,2.45-.33,4.93-1,7.44-.67,2.52-1.31,4.4-1.94,5.66l-1.05,1.89h-18.55c1.82-2.52,2.73-5.41,2.73-8.7,0-6.29-2.62-9.43-7.86-9.43-7.06,0-11.29,4.09-12.68,12.26l-3.56,20.12c-.35,1.89-.52,3.74-.52,5.56,0,4.82,2.85,7.23,8.54,7.23s9.35-2.86,10.95-8.59h-8.6l2.1-11.63h27.78l-1.68,9.01-.52,3.04c-2.94,16.28-14.05,24.42-33.33,24.42Z"/><path class="cls-2" d="M107.49,533.46l.63-16.46h-17.5l-5.14,16.46h-20.02l26.94-75.47h34.59l.42,75.47h-19.92Zm-4.3-57.13l-8.28,26.62h13.73l1.15-26.62h-6.6Z"/><path class="cls-2" d="M156.65,511.97c0,4.82,3.48,7.23,10.43,7.23s10.43-2.17,10.43-6.5c0-2.31-1.19-4.19-3.56-5.66-2.38-1.47-5.26-2.69-8.65-3.67-3.39-.98-6.78-2.11-10.17-3.41-3.39-1.29-6.27-3.32-8.65-6.08-2.38-2.76-3.56-6.2-3.56-10.33,0-17.54,11.28-26.31,33.86-26.31,8.24,0,14.48,1.56,18.71,4.66,4.23,3.11,6.34,7.43,6.34,12.95,0,2.03-.26,3.97-.79,5.82-.52,1.85-1.07,3.16-1.62,3.93l-.84,1.26h-18.55c1.54-1.61,2.31-3.63,2.31-6.08,0-4.54-2.97-6.81-8.91-6.81-7.48,0-11.22,2.38-11.22,7.13,0,2.38,1.19,4.26,3.56,5.66,2.38,1.4,5.26,2.5,8.65,3.3,3.39,.8,6.8,1.8,10.22,2.99,3.42,1.19,6.32,3.16,8.7,5.92,2.38,2.76,3.56,6.34,3.56,10.74,0,8.88-2.66,15.46-7.97,19.76-5.31,4.3-13.49,6.45-24.53,6.45s-18.59-1.96-22.64-5.87c-3.01-2.93-4.51-6.99-4.51-12.16,0-1.96,.21-4.09,.63-6.39l.31-1.68h18.87l-.21,1.26c-.14,.7-.21,1.33-.21,1.89Z"/></g><line class="cls-4" x1="723.7" y1="468.24" x2="207.34" y2="468.24"/><line class="cls-4" x1="723.7" y1="487.55" x2="207.34" y2="487.55"/><line class="cls-4" x1="723.7" y1="506.87" x2="207.34" y2="506.87"/><line class="cls-4" x1="723.7" y1="526.18" x2="207.34" y2="526.18"/><g><polygon class="cls-5" points="499.13 159.77 403.01 203.46 381.55 182 478.32 142.42 499.13 159.77"/><path class="cls-5" d="M464.34,186.09v63.29l-86.73,34.69v-92.07l20.69,20.68c1.42,1.42,3.57,1.81,5.4,.98l60.64-27.57Z"/><polygon class="cls-7" points="466.43 136.86 373.01 175.07 279.59 136.86 373.01 98.64 466.43 136.86"/><polygon class="cls-5" points="364.47 182 343 203.46 246.89 159.77 267.7 142.42 364.47 182"/><path class="cls-5" d="M367.83,192v92.07l-86.73-34.69v-63.29l60.65,27.57c1.83,.83,3.98,.44,5.4-.98l20.69-20.68Z"/><path d="M511.02,157.25c2.05,1.7,2.33,4.74,.63,6.79-.47,.56-1.06,1.01-1.72,1.31l-35.8,16.28v71.09c0,1.97-1.2,3.75-3.03,4.48h0l-96.58,38.63c-1.15,.46-2.44,.46-3.59,0h0l-96.58-38.63c-1.83-.74-3.03-2.51-3.03-4.48v-71.09l-35.79-16.28c-1.51-.68-2.57-2.1-2.79-3.75-.04-.32-.06-.64-.04-.96,.07-1.36,.77-2.6,1.82-3.47l28.89-24.08c.38-.32,.8-.58,1.26-.76h0l106.21-43.45c1.17-.48,2.48-.48,3.65,0l106.26,43.45c.46,.19,.88,.44,1.27,.76l28.97,24.16Zm-108.01,46.21l96.13-43.69-20.82-17.35-96.76,39.58,21.46,21.46Zm-30-28.39l93.42-38.22-93.42-38.22-93.42,38.22,93.42,38.22Zm91.34,74.32v-63.3l-60.65,27.57c-1.83,.83-3.98,.44-5.4-.98l-20.69-20.68v92.07l86.73-34.68Zm-96.52,34.7v-92.09l-20.69,20.68c-1.42,1.43-3.57,1.82-5.4,.98l-60.65-27.57v63.29l86.73,34.71Zm-24.82-80.63l21.46-21.46-96.76-39.58-20.82,17.35,96.12,43.69Z"/><g class="cls-8"><g><path d="M486.18,16.84c.28,1.07,.1,2.21-.51,3.14-.62,.97-1.61,1.64-2.74,1.86-.2,.04-20.25,3.78-31.86,7.91-1.66,.56-3.28,1.24-4.85,2.02-7.25,3.8-26.55,16.8-34.43,22.17,.79,1.7,1.52,4.83-.78,8.78-.8,1.37,1.06,5.09,2.85,8.69,1.1,2.2,2.33,4.7,3.4,7.4,3.42,8.71,1.53,13.69,0,17.76-.2,.52-.39,1.05-.57,1.58-.64,2.14-1.77,4.1-3.3,5.73h0c2.79,5.87,.75,12.08,.65,12.36-.35,1.06-8.82,26.97-11.86,34.69-1.74,4.41-5.34,7.82-9.83,9.32h0c-1.58,.57-3.23,.92-4.9,1.04-1.06,.06-27.55,1.55-33.83,1.53-2.25-.05-9.63-.31-12.81-1.86-4.02-1.96-4.12-7-2.97-10.79,.57-2.67,6.52-30.55,7.83-36.07,1.21-5.08,1.18-6.14-1.88-9.46-4.75-5.16-2.86-12.13-.99-15.44,.25-.46,6.89-12.47,16-22.55,3.95-4.37,8.37-7.45,13.15-9.13,1.73-.64,3.53-1.08,5.37-1.3,2.64-3.69,9.46-13.24,11.2-15.4,.82-1.09,1.93-1.93,3.2-2.43,1.76-.66,3.71-.58,5.41,.22,.55,.16,1.14,.62,1.38,.53h0c7.51-4.66,28.15-18.62,36.1-22.77,1.36-.72,3.26-1.1,5.45-1.88,12.98-4.61,37.41-9.21,38.41-9.41,1.81-.36,3.63,.6,4.36,2.3l3.37,9.46Zm-8.48-1.5l-.89-2.48c-7.39,1.53-24.46,5.05-34.27,8.54-1.53,.52-3.03,1.14-4.48,1.85-7.17,3.78-26.3,16.64-34.27,22.06l3.04,3.14c7.32-5,28.1-19.02,36.06-23.2,1.9-.95,3.86-1.78,5.87-2.47,8.95-3.18,21.57-5.83,28.94-7.44Zm-67.28,78.65c1.35-3.59,2.41-6.42,0-12.51-.95-2.41-2.06-4.64-3.14-6.81-2.78-5.59-5.41-10.87-2.61-15.65h0c.29-.47,.48-.99,.55-1.54-3.26-2.17-5.69-5.22-8.05-8.12-1.03-1.3-2.02-2.52-3.04-3.63l-.09-.07c-1.88,2.45-9.13,12.54-11.83,16.3-.74,1.05-1.98,1.63-3.26,1.53-1.58,.05-3.14,.36-4.61,.92-3.93,1.51-7.43,3.98-10.17,7.17-8.52,9.43-15,21.08-15.03,21.2s-2.35,4.37,0,6.89c5.52,6.01,5.05,10.1,3.62,16.12-1.3,5.59-7.73,35.76-7.79,36.06,0,.11-.06,.23-.09,.35-.23,.76-.34,1.56-.34,2.35,1.71,.48,5.92,.87,9.13,.93,6,0,33.13-1.51,33.4-1.53,0,0,.35,0,.85-.11,.67-.11,1.32-.28,1.96-.51,2.5-.78,4.51-2.66,5.46-5.09,2.95-7.52,11.64-34.06,11.74-34.32,0-.06,1.3-4.12-.57-7.38-.33-.58-.5-1.24-.48-1.91l.07-2.75c.03-1.4,.85-2.67,2.12-3.26,.2-.18,.85-.92,1.53-2.9,.23-.57,.45-1.18,.67-1.75Z"/><path class="cls-9" d="M476.81,12.85l.88,2.48c-7.36,1.61-19.98,4.26-28.92,7.44-2.01,.69-3.97,1.51-5.87,2.47-7.96,4.17-28.74,18.2-36.06,23.2l-3.04-3.14c7.97-5.42,27.07-18.26,34.27-22.06,1.45-.71,2.95-1.33,4.48-1.85,9.81-3.49,26.89-7,34.26-8.54Z"/><path class="cls-1" d="M410.45,81.51c2.39,6.08,1.3,8.92,0,12.51-.22,.59-.44,1.17-.65,1.77-.65,1.96-1.3,2.71-1.53,2.9-1.27,.59-2.09,1.86-2.12,3.26l-.07,2.75c-.02,.67,.14,1.33,.48,1.91,1.87,3.26,.59,7.32,.57,7.38-.09,.26-8.78,26.8-11.74,34.32-.96,2.44-2.97,4.31-5.46,5.09-.64,.23-1.29,.4-1.96,.51-.5,.09-.82,.1-.85,.11-.27,0-27.39,1.54-33.4,1.53-3.26-.07-7.45-.45-9.13-.93,0-.8,.11-1.59,.34-2.35,.03-.12,.07-.23,.09-.35,.06-.31,6.47-30.47,7.79-36.06,1.43-6.03,1.9-10.11-3.62-16.12-2.33-2.52,0-6.83,0-6.89s6.52-11.74,15.03-21.2c2.74-3.2,6.23-5.66,10.17-7.17,1.47-.57,3.02-.89,4.59-.95,1.28,.1,2.52-.48,3.26-1.53,2.7-3.78,9.95-13.88,11.83-16.3l.09,.07c1.02,1.11,2.01,2.34,3.04,3.63,2.35,2.93,4.77,5.95,8.05,8.12-.07,.55-.26,1.07-.55,1.54h0c-2.78,4.77-.16,10.06,2.61,15.65,1.08,2.14,2.19,4.38,3.14,6.81Z"/></g></g><path d="M402.04,109.27c2.86,9.97-3.97,33.02-13.45,39-.52,.33-1.08,.6-1.66,.8h0c-7.17,2.54-23.18-2.34-26.31-3.35-1.82-.58-2.89-2.46-2.45-4.32l9.34-40.17c.3-1.32,1.3-2.36,2.61-2.71,2.85-.8,12.48-3.3,16.72-2.12,1.39,.43,2.74,1,4.01,1.7,.25,.11,.49,.25,.72,.41,4.33,2.48,9.29,6.61,10.48,10.75Zm-14.76,30.28c5.13-6.59,9.6-21.65,7.71-28.24-.4-1.38-3.14-3.87-5.94-5.71-3.6,1.49-7.04,3.39-7.71,4.29-1.58,3.47,1.72,17.49,5.73,28.41,.14,.4,.21,.82,.21,1.25Zm-5.76,2.97c-.59-.42-1.05-1.01-1.3-1.69-1.56-4.26-9.18-25.95-5.42-34.15,.41-.8,.95-1.52,1.6-2.14-.74,.16-1.48,.33-2.24,.52l-8.05,34.66c5.15,1.41,11.39,2.71,15.41,2.77v.02Z"/><path class="cls-7" d="M395,111.29c1.88,6.59-2.61,21.65-7.71,28.24,0-.42-.07-.85-.21-1.25-4-10.92-7.3-24.94-5.73-28.41,.65-.9,4.11-2.8,7.71-4.29,2.8,1.83,5.54,4.32,5.94,5.71Z"/><path class="cls-7" d="M374.77,106.66c-3.76,8.2,3.86,29.88,5.42,34.15,.26,.68,.71,1.27,1.3,1.69-4.02-.06-10.26-1.36-15.38-2.79l8.05-34.66c.76-.19,1.5-.36,2.24-.52-.66,.61-1.22,1.34-1.63,2.14Z"/></g></svg>