<?xml version="1.0" encoding="UTF-8"?><svg id="Layer_1" xmlns="http://www.w3.org/2000/svg" xmlns:xlink="http://www.w3.org/1999/xlink" viewBox="0 0 441.64 454.31"><defs><style>.cls-1{fill:#d92938;}.cls-2{fill:#f2c49b;}.cls-3{fill:#d9a384;}.cls-4{clip-path:url(#clippath);}.cls-5{fill:none;}.cls-6{fill:#3d80d9;}</style><clipPath id="clippath"><rect class="cls-5" x="131.98" y="42.64" width="286.71" height="186.47" transform="translate(-29.61 100.08) rotate(-19.57)"/></clipPath></defs><g><polygon class="cls-2" points="408.23 245.01 260.83 312 227.93 279.1 376.31 218.4 408.23 245.01"/><path class="cls-2" d="M355.42,285.26v97.19l-133.2,53.28v-141.4l31.77,31.76c2.18,2.19,5.48,2.78,8.29,1.51l93.14-42.34Z"/><polygon class="cls-3" points="358.08 209.87 214.83 268.47 71.58 209.87 214.83 151.27 358.08 209.87"/><polygon class="cls-2" points="201.73 279.1 168.82 312 21.43 245 53.35 218.4 201.73 279.1"/><path class="cls-2" d="M207.43,294.33v141.4l-133.2-53.28v-97.19l93.14,42.34c2.81,1.28,6.11,.68,8.29-1.51l31.77-31.76Z"/><path d="M426.76,241.18c1.96,1.63,2.94,4.15,2.6,6.68-.17,1.26-.66,2.43-1.39,3.42-.74,.99-1.72,1.8-2.88,2.32l-54.86,24.94v108.93c0,3.02-1.84,5.74-4.65,6.87h-.01l-147.99,59.19c-1.76,.71-3.73,.71-5.5,0h0l-147.99-59.19c-2.8-1.13-4.64-3.85-4.64-6.87v-108.93L4.59,253.6c-2.32-1.05-3.94-3.22-4.28-5.74-.04-.33-.07-.66-.07-.99,0-2.18,.97-4.27,2.67-5.69l44.4-37c.58-.48,1.23-.88,1.93-1.16h.01l162.79-66.6c1.79-.73,3.8-.73,5.59,0l162.79,66.6c.71,.29,1.36,.68,1.94,1.16l44.4,37Zm-165.93,70.82l147.4-66.99-31.92-26.61-148.38,60.7,32.9,32.9Zm-46-43.53l143.25-58.6-143.25-58.6-143.25,58.6,143.25,58.6Zm140.59,113.98v-97.19l-93.14,42.34c-2.81,1.27-6.11,.68-8.29-1.51l-31.77-31.76v141.4l133.2-53.28Zm-147.99,53.28v-141.4l-31.77,31.76c-2.18,2.19-5.48,2.79-8.29,1.51l-93.14-42.34v97.19l133.2,53.28Zm-38.61-123.73l32.91-32.9L53.35,218.4l-31.92,26.6,147.39,67Z"/></g><g><g class="cls-4"><g><path d="M388.37,25.83c.55,1.56,.04,3.39-.78,4.81-.82,1.43-2.58,2.54-4.2,2.85-.31,.06-31.05,5.79-48.86,12.13-3.09,1.09-5.59,2.14-7.43,3.1-11.12,5.82-40.71,25.76-52.79,33.97,1.21,2.6,2.33,7.4-1.19,13.47-1.22,2.1,1.62,7.81,4.37,13.33,1.68,3.38,3.58,7.2,5.21,11.35,5.24,13.35,2.35,21.05,.02,27.24-.3,.8-.6,1.61-.88,2.42-1.5,4.4-3.35,7.11-5.06,8.78v.03c4.28,9.04,1.15,18.53,1.01,18.95-.53,1.63-13.53,41.36-18.18,53.2-3.38,8.58-10.07,12.51-15.08,14.29h-.01c-3.96,1.41-7.16,1.57-7.52,1.59-1.62,.09-42.25,2.38-51.87,2.35-3.45-.07-14.77-.47-19.65-2.85-6.17-3.03-6.32-10.74-4.56-16.55,.87-4.09,9.95-46.84,11.95-55.31,1.85-7.79,1.81-9.41-2.88-14.51-7.28-7.92-4.38-18.6-1.52-23.67,.39-.71,10.56-19.12,24.53-34.58,6.06-6.7,12.83-11.43,20.16-14.03,3.35-1.19,6.19-1.74,8.23-1.95,4.05-5.66,14.5-20.3,17.18-23.61,1.39-1.71,3.01-3.06,4.9-3.73,3.1-1.1,6.09-.75,8.29,.34,.85,.25,1.75,.95,2.12,.81h.03c11.52-7.15,43.17-28.56,55.36-34.93,2.09-1.1,5.02-1.69,8.36-2.88,19.91-7.08,57.32-14.14,58.9-14.44,2.72-.5,5.75,.91,6.68,3.52l5.16,14.51Zm-13-2.3l-1.35-3.81c-11.33,2.35-37.51,7.74-52.55,13.09-2.8,.99-5.26,2-6.87,2.84-11.04,5.79-40.33,25.51-52.55,33.82l4.66,4.82c11.23-7.66,43.09-29.17,55.3-35.57,2.34-1.22,5.36-2.49,8.99-3.78,13.71-4.87,33.07-8.96,44.37-11.41Zm-103.17,120.6c2.07-5.5,3.7-9.85,.04-19.18-1.45-3.69-3.16-7.12-4.81-10.44-4.26-8.57-8.29-16.67-4.02-23.99h-.01c.29-.49,.82-1.52,.85-2.36-5.03-3.32-8.73-7.95-12.34-12.45-1.58-1.97-3.09-3.86-4.66-5.56-.04-.04-.09-.07-.14-.11-2.88,3.75-14,19.23-18.14,25.03-1.14,1.6-3.02,2.48-4.97,2.34,0,.01-2.86-.09-7.07,1.41-5.55,1.98-10.8,5.66-15.59,10.96-13.07,14.46-22.95,32.33-23.05,32.51-.05,.09-3.6,6.7-.03,10.57,8.46,9.21,7.74,15.48,5.55,24.72-2.03,8.57-11.86,54.83-11.95,55.3-.04,.17-.09,.35-.14,.53-.35,1.14-.56,2.68-.52,3.61,2.62,.74,9.08,1.33,14.04,1.43,9.2,.02,50.8-2.32,51.22-2.34,.04-.01,.53-.03,1.3-.17,.77-.13,1.82-.36,2.99-.78,4.1-1.46,6.92-4.08,8.38-7.81,4.53-11.53,17.85-52.23,17.99-52.63,.03-.09,1.99-6.31-.88-11.32-.51-.89-.76-1.9-.73-2.93l.1-4.22c.05-2.16,1.34-4.07,3.25-4.96,.3-.28,1.31-1.41,2.34-4.44,.32-.92,.66-1.82,1-2.72Z"/><path class="cls-6" d="M374.02,19.72l1.35,3.81c-11.3,2.45-30.66,6.54-44.37,11.41-3.63,1.29-6.65,2.56-8.99,3.78-12.21,6.4-44.07,27.91-55.3,35.57l-4.66-4.82c12.22-8.31,41.51-28.03,52.55-33.82,1.61-.84,4.07-1.85,6.87-2.84,15.04-5.35,41.22-10.74,52.55-13.09Z"/><path class="cls-1" d="M272.24,124.95c3.66,9.33,2.03,13.68-.04,19.18-.34,.9-.68,1.8-1,2.72-1.03,3.03-2.04,4.16-2.34,4.44-1.91,.89-3.2,2.8-3.25,4.96l-.1,4.22c-.03,1.03,.22,2.04,.73,2.93,2.87,5.01,.91,11.23,.88,11.32-.14,.4-13.46,41.1-17.99,52.63-1.46,3.73-4.28,6.35-8.38,7.81-1.17,.42-2.22,.65-2.99,.78-.77,.14-1.26,.16-1.3,.17-.42,.02-42.02,2.36-51.22,2.34-4.96-.1-11.42-.69-14.04-1.43-.04-.93,.17-2.47,.52-3.61,.05-.18,.1-.36,.14-.53,.09-.47,9.92-46.73,11.95-55.3,2.19-9.24,2.91-15.51-5.55-24.72-3.57-3.87-.02-10.48,.03-10.57,.1-.18,9.98-18.05,23.05-32.51,4.79-5.3,10.04-8.98,15.59-10.96,4.21-1.5,7.07-1.4,7.07-1.41,1.95,.14,3.83-.74,4.97-2.34,4.14-5.8,15.26-21.28,18.14-25.03,.05,.04,.1,.07,.14,.11,1.57,1.7,3.08,3.59,4.66,5.56,3.61,4.5,7.31,9.13,12.34,12.45-.03,.84-.56,1.87-.85,2.36h.01c-4.27,7.32-.24,15.42,4.02,23.99,1.65,3.32,3.36,6.75,4.81,10.44Z"/></g></g><g><path d="M259.35,167.57c4.39,15.29-6.09,50.64-20.62,59.8-.76,.48-1.62,.9-2.55,1.23h-.01c-10.97,3.9-35.54-3.59-40.35-5.14-2.79-.89-4.42-3.77-3.76-6.62l14.32-61.59c.47-2.01,1.95-3.59,3.96-4.15,4.37-1.22,19.14-5.06,25.64-3.25,1.69,.47,3.84,1.38,6.15,2.61,.38,.17,.76,.37,1.1,.63,6.69,3.81,14.3,10.13,16.12,16.48Zm-22.63,46.4c7.87-10.1,14.72-33.2,11.83-43.3-.61-2.12-4.82-5.94-9.11-8.75-5.52,2.29-10.8,5.2-11.82,6.58-2.42,5.32,2.64,26.82,8.78,43.56,.23,.62,.32,1.27,.32,1.91Zm-8.92,4.55c-.87-.63-1.56-1.51-1.96-2.59-2.39-6.54-14.07-39.79-8.31-52.36,.53-1.12,1.38-2.22,2.46-3.28-1.13,.25-2.27,.51-3.43,.8l-12.35,53.15c7.86,2.19,17.42,4.19,23.59,4.28Z"/><path class="cls-3" d="M248.55,170.67c2.89,10.1-3.96,33.2-11.83,43.3,0-.64-.09-1.29-.32-1.91-6.14-16.74-11.2-38.24-8.78-43.56,1.02-1.38,6.3-4.29,11.82-6.58,4.29,2.81,8.5,6.63,9.11,8.75Z"/><path class="cls-3" d="M217.53,163.57c-5.76,12.57,5.92,45.82,8.31,52.36,.4,1.08,1.09,1.96,1.96,2.59-6.17-.09-15.73-2.09-23.59-4.28l12.35-53.15c1.16-.29,2.3-.55,3.43-.8-1.08,1.06-1.93,2.16-2.46,3.28Z"/></g></g></svg>