<?xml version="1.0" encoding="iso-8859-1"?>
<!-- Generator: Adobe Illustrator 19.0.0, SVG Export Plug-In . SVG Version: 6.00 Build 0)  -->
<svg version="1.1" id="Layer_1" xmlns="http://www.w3.org/2000/svg" xmlns:xlink="http://www.w3.org/1999/xlink" x="0px" y="0px"
	 viewBox="0 0 512 512" style="enable-background:new 0 0 512 512;" xml:space="preserve">
<path style="fill:#595959;" d="M490.568,408.826c-16.137,21.882-45.956,36.585-74.202,36.585H307.2
	c-5.533,0-10.017-4.472-10.017-9.988s4.484-9.988,10.017-9.988h109.167c21.836,0,45.712-11.696,58.061-28.442
	c5.409-7.335,10.953-18.965,6.645-32.719L407.662,129.97c-0.295-0.941-0.449-1.92-0.456-2.905L406.35,10.062
	C406.309,4.546,410.761,0.041,416.294,0c0.025,0,0.05,0,0.075,0c5.498,0,9.975,4.423,10.015,9.915l0.846,115.516l72.967,232.884
	C505.506,375.269,502.087,393.207,490.568,408.826z"/>
<path style="fill:#234556;" d="M41.593,1.48h304.813V512H41.593V1.48L41.593,1.48z"/>
<path style="fill:#1C3B47;" d="M445.992,9.988v41.368c0,5.516-4.484,9.988-10.017,9.988s-10.017-4.472-10.017-9.988V9.988
	c0-5.516,4.484-9.988,10.017-9.988S445.992,4.472,445.992,9.988z"/>
<path style="fill:#4FA94C;" d="M108.531,79.42h170.937v85.533H108.531V79.42L108.531,79.42z"/>
<path style="fill:#4FC54C;" d="M108.531,79.42h170.937v44.141H108.531V79.42z"/>
<path style="fill:#E69724;" d="M194.001,406.707c-31.607,0-57.226-25.573-57.226-57.12c0-34.533,37.871-78.82,57.226-103.929
	c19.681,25.432,57.226,69.395,57.226,103.929C251.227,381.134,225.608,406.707,194.001,406.707L194.001,406.707z"/>
<path style="fill:#DA6D18;" d="M251.227,349.587c0,31.547-25.619,57.12-57.226,57.12v-161.05
	C213.682,271.091,251.227,315.054,251.227,349.587z"/>
<path style="fill:#DC2C13;" d="M389.565,502.012c0,5.516-4.484,9.988-10.017,9.988H10.017C4.484,512,0,507.528,0,502.012
	s4.484-9.988,10.017-9.988h369.53C385.081,492.023,389.565,496.495,389.565,502.012z"/>
<path style="fill:#5B7F99;" d="M512,9.993c0,5.516-4.484,9.988-10.017,9.988h-85.615c-5.533,0-10.017-4.472-10.017-9.988
	s4.484-9.988,10.017-9.988h85.615C507.516,0.004,512,4.476,512,9.993z"/>
<g>
</g>
<g>
</g>
<g>
</g>
<g>
</g>
<g>
</g>
<g>
</g>
<g>
</g>
<g>
</g>
<g>
</g>
<g>
</g>
<g>
</g>
<g>
</g>
<g>
</g>
<g>
</g>
<g>
</g>
</svg>
