<?xml version="1.0" encoding="iso-8859-1"?>
<!-- Generator: Adobe Illustrator 19.0.0, SVG Export Plug-In . SVG Version: 6.00 Build 0)  -->
<svg version="1.1" id="Layer_1" xmlns="http://www.w3.org/2000/svg" xmlns:xlink="http://www.w3.org/1999/xlink" x="0px" y="0px"
	 viewBox="0 0 512 512" style="enable-background:new 0 0 512 512;" xml:space="preserve">
<g transform="translate(1 1)">
	<g>
		<path style="fill:#FFE100;" d="M369.759,290.31c-5.297,0-8.828-3.531-8.828-8.828V140.241c0-15.007-11.476-26.483-26.483-26.483
			s-26.483,11.476-26.483,26.483c0,0.883,0,0.883,0,1.766l-8.828,52.966c-0.883,4.414-5.297,7.945-10.593,7.062
			c-4.414-0.883-7.945-5.297-7.062-10.593l8.828-52.083c0-23.834,20.303-43.255,44.138-43.255c24.717,0,44.138,19.421,44.138,44.138
			v141.241C378.586,286.779,375.055,290.31,369.759,290.31z"/>
		<path style="fill:#FFE100;" d="M422.724,387.414c-34.428,0-61.793-27.366-61.793-61.793v-52.966c0-5.297,3.531-8.828,8.828-8.828
			s8.828,3.531,8.828,8.828v52.966c0,24.717,19.421,44.138,44.138,44.138c24.717,0,44.138-19.421,44.138-44.138v-88.276
			c0-5.297,3.531-8.828,8.828-8.828s8.828,3.531,8.828,8.828v88.276C484.517,360.048,457.152,387.414,422.724,387.414z"/>
		<path style="fill:#FFE100;" d="M408.6,41.372L408.6,41.372c-8.828,5.297-10.593,17.655-4.414,25.6l43.255,60.91
			c0.883,1.766,0.883,4.414-0.883,5.297l-14.124,14.124c-0.883,0.883-0.883,1.766-0.883,2.648v87.393h70.621V134.062
			c0-1.766-0.883-3.531-1.766-5.297l-67.09-83.862C427.138,37.841,416.545,36.076,408.6,41.372"/>
		<path style="fill:#FFE100;" d="M256.766,484.517H41.372c-8.828,0-15.89-7.062-15.89-15.89V41.372c0-8.828,7.062-15.89,15.89-15.89
			h215.393c8.828,0,15.89,7.062,15.89,15.89v427.255C272.655,477.455,265.593,484.517,256.766,484.517"/>
	</g>
	<path style="fill:#FECC00;" d="M290.31,219.69H7.828V41.372c0-8.828,7.062-15.89,15.89-15.89h250.703
		c8.828,0,15.89,7.062,15.89,15.89V219.69L290.31,219.69z"/>
	<path style="fill:#FFA800;" d="M274.421,25.483h-17.655c8.828,0,15.89,7.062,15.89,15.89v427.255c0,8.828-7.062,15.89-15.89,15.89
		h17.655c8.828,0,15.89-7.062,15.89-15.89V41.372C290.31,32.545,283.248,25.483,274.421,25.483"/>
	<path style="fill:#FFFFFF;" d="M25.483,468.628V41.372c0-8.828,7.062-15.89,15.89-15.89H23.717c-8.828,0-15.89,7.062-15.89,15.89
		v427.255c0,8.828,7.062,15.89,15.89,15.89h17.655C32.545,484.517,25.483,477.455,25.483,468.628"/>
	<g>
		<path style="fill:#63D3FD;" d="M247.938,104.931H138.476c-4.414,0-7.062-2.648-7.062-7.062V76.683
			c0-4.414,2.648-7.062,7.062-7.062h110.345c3.531,0,6.179,2.648,6.179,7.062v22.069C255,102.283,252.352,104.931,247.938,104.931"
			/>
		<path style="fill:#63D3FD;" d="M247.938,175.552H138.476c-3.531,0-7.062-2.648-7.062-7.062v-22.069
			c0-3.531,2.648-7.062,7.062-7.062h110.345c3.531,0,7.062,2.648,7.062,7.062v22.069C255,172.903,252.352,175.552,247.938,175.552"
			/>
		<path style="fill:#63D3FD;" d="M87.276,87.276c0,9.71-7.945,17.655-17.655,17.655s-17.655-7.945-17.655-17.655
			s7.945-17.655,17.655-17.655S87.276,77.566,87.276,87.276"/>
		<path style="fill:#63D3FD;" d="M87.276,157.897c0,9.71-7.945,17.655-17.655,17.655s-17.655-7.945-17.655-17.655
			c0-9.71,7.945-17.655,17.655-17.655S87.276,148.186,87.276,157.897"/>
		<path style="fill:#63D3FD;" d="M238.228,440.379H59.91c-4.414,0-7.945-3.531-7.945-7.945V271.772c0-4.414,3.531-7.945,7.945-7.945
			h178.317c4.414,0,7.945,3.531,7.945,7.945v160.662C246.172,436.848,242.641,440.379,238.228,440.379"/>
	</g>
	<path d="M274.421,493.345H23.717C10.476,493.345-1,481.869-1,468.628V41.372c0-13.241,11.476-24.717,24.717-24.717h250.703
		c13.241,0,24.717,11.476,24.717,24.717v427.255C299.138,481.869,287.662,493.345,274.421,493.345z M23.717,34.31
		c-3.531,0-7.062,3.531-7.062,7.062v427.255c0,3.531,3.531,7.062,7.062,7.062h250.703c3.531,0,7.062-3.531,7.062-7.062V41.372
		c0-3.531-3.531-7.062-7.062-7.062H23.717z"/>
	<path d="M299.138,228.517H-1V41.372c0-13.241,11.476-24.717,24.717-24.717h250.703c13.241,0,24.717,11.476,24.717,24.717V228.517z
		 M16.655,210.862h264.828V41.372c0-3.531-3.531-7.062-7.062-7.062H23.717c-3.531,0-7.062,3.531-7.062,7.062V210.862z"/>
	<path d="M247.938,113.759H138.476c-8.828,0-15.89-7.062-15.89-15.89V76.683c0-8.828,7.062-15.89,15.89-15.89h110.345
		c8.828,0,15.89,7.062,15.89,15.89v22.069C263.828,106.697,256.766,113.759,247.938,113.759z M140.241,96.103h105.931V78.448
		H140.241V96.103z"/>
	<path d="M247.938,184.379H138.476c-8.828,0-15.89-7.062-15.89-15.89v-22.069c0-8.828,7.062-15.89,15.89-15.89h110.345
		c8.828,0,15.89,7.062,15.89,15.89v22.069C263.828,177.317,256.766,184.379,247.938,184.379z M140.241,166.724h105.931v-17.655
		H140.241V166.724z"/>
	<path d="M69.621,113.759c-15.007,0-26.483-11.476-26.483-26.483s11.476-26.483,26.483-26.483s26.483,11.476,26.483,26.483
		S84.628,113.759,69.621,113.759z M69.621,78.448c-5.297,0-8.828,3.531-8.828,8.828c0,5.297,3.531,8.828,8.828,8.828
		s8.828-3.531,8.828-8.828C78.448,81.979,74.917,78.448,69.621,78.448z"/>
	<path d="M69.621,184.379c-15.007,0-26.483-11.476-26.483-26.483c0-15.007,11.476-26.483,26.483-26.483s26.483,11.476,26.483,26.483
		C96.103,172.903,84.628,184.379,69.621,184.379z M69.621,149.069c-5.297,0-8.828,3.531-8.828,8.828s3.531,8.828,8.828,8.828
		s8.828-3.531,8.828-8.828S74.917,149.069,69.621,149.069z"/>
	<path d="M238.228,449.207H59.91c-8.828,0-16.772-7.945-16.772-16.772V271.772c0-8.828,7.945-16.772,16.772-16.772h178.317
		c8.828,0,16.772,7.945,16.772,16.772v160.662C255,441.262,247.055,449.207,238.228,449.207z M60.793,431.552h176.552V272.655
		H60.793V431.552z"/>
	<path d="M184.379,316.793h-70.621c-5.297,0-8.828-3.531-8.828-8.828s3.531-8.828,8.828-8.828h70.621
		c5.297,0,8.828,3.531,8.828,8.828S189.676,316.793,184.379,316.793z"/>
	<path d="M202.034,360.931H96.103c-5.297,0-8.828-3.531-8.828-8.828s3.531-8.828,8.828-8.828h105.931
		c5.297,0,8.828,3.531,8.828,8.828S207.331,360.931,202.034,360.931z"/>
	<path d="M184.379,405.069h-70.621c-5.297,0-8.828-3.531-8.828-8.828c0-5.297,3.531-8.828,8.828-8.828h70.621
		c5.297,0,8.828,3.531,8.828,8.828C193.207,401.538,189.676,405.069,184.379,405.069z"/>
	<path d="M360.931,290.31c-5.297,0-8.828-3.531-8.828-8.828V140.241c0-15.007-11.476-26.483-26.483-26.483
		s-26.483,11.476-26.483,26.483v52.966c0,5.297-3.531,8.828-8.828,8.828s-8.828-3.531-8.828-8.828v-52.966
		c0-24.717,19.421-44.138,44.138-44.138c24.717,0,44.138,19.421,44.138,44.138v141.241
		C369.759,286.779,366.228,290.31,360.931,290.31z"/>
	<path d="M413.897,387.414c-34.428,0-61.793-27.366-61.793-61.793v-52.966c0-5.297,3.531-8.828,8.828-8.828s8.828,3.531,8.828,8.828
		v52.966c0,24.717,19.421,44.138,44.138,44.138s44.138-19.421,44.138-44.138v-88.276c0-5.297,3.531-8.828,8.828-8.828
		s8.828,3.531,8.828,8.828v88.276C475.69,360.048,448.324,387.414,413.897,387.414z"/>
	<path d="M511,246.172h-88.276v-95.338c0-3.531,1.766-7.062,3.531-9.71l11.476-11.476l-40.607-58.262
		c-4.414-6.179-6.179-13.241-4.414-20.303c1.766-7.062,5.297-13.241,11.476-17.655l0,0c11.476-7.062,27.366-4.414,36.193,6.179
		l67.09,83.862c2.648,2.648,3.531,7.062,3.531,10.593V246.172z M440.379,228.517h52.966v-94.455L426.255,50.2
		c-2.648-3.531-8.828-4.414-12.359-1.766l0,0c-1.766,1.766-3.531,3.531-4.414,6.179c-0.883,2.648,0,5.297,1.766,7.062l43.255,60.91
		c3.531,5.297,2.648,12.359-1.766,16.772L440.379,152.6V228.517z M439.497,133.179L439.497,133.179L439.497,133.179z"/>
</g>
<g>
</g>
<g>
</g>
<g>
</g>
<g>
</g>
<g>
</g>
<g>
</g>
<g>
</g>
<g>
</g>
<g>
</g>
<g>
</g>
<g>
</g>
<g>
</g>
<g>
</g>
<g>
</g>
<g>
</g>
</svg>
