<?xml version="1.0" encoding="iso-8859-1"?>
<!-- Generator: Adobe Illustrator 19.0.0, SVG Export Plug-In . SVG Version: 6.00 Build 0)  -->
<svg version="1.1" id="Layer_1" xmlns="http://www.w3.org/2000/svg" xmlns:xlink="http://www.w3.org/1999/xlink" x="0px" y="0px"
	 viewBox="0 0 485.187 485.187" style="enable-background:new 0 0 485.187 485.187;" xml:space="preserve">
<path style="fill:#FFB000;" d="M358.938,463.309c0,4.167-3.403,7.554-7.554,7.554H59.717c-4.167,0-7.538-3.387-7.538-7.554V206.86
	c0-4.167,3.371-7.554,7.538-7.554h291.659c4.151,0,7.554,3.387,7.554,7.554v256.449H358.938z"/>
<path style="fill:#FF9100;" d="M52.179,206.86c0-4.167,3.371-7.554,7.538-7.554h291.659c4.151,0,7.554,3.387,7.554,7.554v256.449
	c0,4.167-3.403,7.554-7.554,7.554"/>
<path style="fill:#08A599;" d="M374.794,465.656c0,2.875-2.324,5.199-5.183,5.199H41.505c-2.875,0-5.183-2.324-5.183-5.199l0,0
	c0-2.859,2.308-5.183,5.183-5.183h328.105C372.47,460.473,374.794,462.797,374.794,465.656L374.794,465.656z"/>
<path style="fill:#EA186D;" d="M406.782,197.352l-198.018-93.357c-2.048-0.953-4.387-0.953-6.428,0L4.318,197.352
	c-3.182,1.489-4.907,5.018-4.135,8.46c0.756,3.45,3.828,5.892,7.357,5.892h396.028c3.521,0,6.585-2.45,7.357-5.892
	C411.705,202.37,409.98,198.841,406.782,197.352z"/>
<path style="fill:#D10D54;" d="M208.764,131.659c-2.048-0.953-4.387-0.953-6.428,0L32.518,211.704h346.08L208.764,131.659z"/>
<path style="fill:#BC0F45;" d="M202.336,142.025L54.502,211.704h302.08l-147.818-69.679
	C206.716,141.072,204.377,141.072,202.336,142.025z"/>
<path style="fill:#EA186D;" d="M242.209,309.307H168.67c-4.167,0-7.554,3.371-7.554,7.538v154.017h88.631V316.845
	C249.748,312.67,246.376,309.307,242.209,309.307z"/>
<path style="fill:#D10D54;" d="M242.209,309.307H168.67c-0.11,0-0.197,0.063-0.307,0.063l81.384,71.814v-64.339
	C249.748,312.67,246.376,309.307,242.209,309.307z"/>
<circle style="opacity:0.6;fill:#5CF7FF;enable-background:new    ;" cx="321.837" cy="136.078" r="109.576"/>
<path style="fill:#17DD9F;" d="M321.837,257.831c-67.135,0-121.754-54.619-121.754-121.754S254.694,14.324,321.837,14.324
	c67.127,0,121.746,54.619,121.746,121.754S388.964,257.831,321.837,257.831z M321.837,38.672c-53.713,0-97.406,43.693-97.406,97.398
	s43.685,97.406,97.406,97.406c53.705,0,97.39-43.693,97.39-97.398S375.542,38.672,321.837,38.672z"/>
<path style="fill:#08C19D;" d="M338.733,31.228c-67.127,0-121.746,54.619-121.746,121.754c0,29.279,10.39,56.155,27.672,77.186
	c21.023,17.258,47.9,27.664,77.178,27.664c67.127,0,121.746-54.619,121.746-121.754c0-29.279-10.382-56.155-27.664-77.186
	C394.888,41.626,368.012,31.228,338.733,31.228z M338.733,250.38c-31.153,0-58.864-14.753-76.705-37.597
	c-22.827-17.833-37.597-45.552-37.597-76.705c0-53.705,43.693-97.398,97.406-97.398c31.153,0,58.872,14.753,76.705,37.597
	c22.835,17.849,37.597,45.552,37.597,76.705C436.139,206.686,392.446,250.38,338.733,250.38z"/>
<path style="fill:#17DD9F;" d="M472.995,299.429c-3.111,0-6.231-1.197-8.602-3.568l-71.018-71.034
	c-4.766-4.758-4.766-12.446,0-17.219c4.758-4.758,12.453-4.758,17.219,0l71.018,71.034c4.766,4.758,4.766,12.461,0,17.219
	C479.234,298.224,476.115,299.429,472.995,299.429z"/>
<g>
</g>
<g>
</g>
<g>
</g>
<g>
</g>
<g>
</g>
<g>
</g>
<g>
</g>
<g>
</g>
<g>
</g>
<g>
</g>
<g>
</g>
<g>
</g>
<g>
</g>
<g>
</g>
<g>
</g>
</svg>
