<?xml version="1.0" encoding="UTF-8"?><svg id="Layer_1" xmlns="http://www.w3.org/2000/svg" viewBox="0 0 265.24 255.84"><path d="M55.88,255.82c-2.54-.2-4.89-1.44-6.52-3.42s-2.39-4.55-2.11-7.11l8.3-79.64L2.5,106.41h0c-2.31-2.53-3.09-6.12-2.04-9.39,1.04-3.27,3.75-5.72,7.09-6.41l77.47-16.62L124.56,4.73c1.69-2.93,4.79-4.73,8.14-4.73s6.45,1.8,8.14,4.73l39.39,69.27,77.47,16.62c3.34,.68,6.04,3.13,7.09,6.41,1.05,3.27,.27,6.86-2.04,9.39l-52.89,59.23,8.3,79.64c.35,3.38-1.11,6.7-3.82,8.7-2.72,2-6.29,2.39-9.36,1.01l-72.26-32.58-72.26,32.58c-1.43,.65-2.99,.94-4.55,.82h0Zm11.88-25.01l61.03-27.64c2.44-1.09,5.21-1.09,7.65,0l61.2,27.64-7-67.3h0c-.32-2.68,.51-5.38,2.28-7.41l44.92-50.35-65.59-13.82h0c-2.62-.58-4.87-2.25-6.19-4.61l-33.36-58.74-33.36,58.74c-1.36,2.39-3.67,4.07-6.35,4.61l-65.59,13.82,44.92,50.35h0c1.82,2,2.71,4.7,2.44,7.41l-7,67.3Z"/></svg>