<?xml version="1.0" encoding="UTF-8"?><svg id="Layer_1" xmlns="http://www.w3.org/2000/svg" viewBox="0 0 265.74 256.34"><defs><style>.cls-1{fill:#e5e51c;}</style></defs><path class="cls-1" d="M238.08,106l-44.92,50.35c-1.76,2.04-2.59,4.73-2.27,7.41h-.01l7,67.3-61.19-27.65c-2.44-1.09-5.21-1.09-7.65,0l-61.03,27.65,7-67.3c.27-2.71-.62-5.4-2.44-7.41h-.01L27.65,106l65.59-13.82c2.67-.53,4.99-2.21,6.34-4.6l33.37-58.74,33.36,58.74c1.32,2.35,3.56,4.02,6.18,4.6l65.59,13.82Z"/><path d="M265.03,97.27c1.05,3.28,.26,6.87-2.04,9.39l-52.9,59.24,8.3,79.64c.35,3.38-1.1,6.69-3.82,8.69-2.72,2.01-6.29,2.39-9.36,1.02l-72.26-32.58-72.27,32.58c-1.42,.65-2.99,.93-4.55,.82-2.54-.2-4.89-1.44-6.52-3.42-1.62-1.99-2.38-4.55-2.11-7.11l8.31-79.64L2.75,106.66c-1.63-1.78-2.5-4.1-2.5-6.47,0-.97,.15-1.96,.45-2.92,1.05-3.27,3.76-5.72,7.09-6.4l77.47-16.62L124.81,4.98c1.69-2.93,4.78-4.73,8.14-4.73s6.45,1.8,8.13,4.73l39.39,69.27,77.47,16.62c3.33,.68,6.04,3.13,7.09,6.4Zm-71.87,59.08l44.92-50.35-65.59-13.82c-2.62-.58-4.86-2.25-6.18-4.6l-33.36-58.74-33.37,58.74c-1.35,2.39-3.67,4.07-6.34,4.6l-65.59,13.82,44.91,50.35h.01c1.82,2.01,2.71,4.7,2.44,7.41l-7,67.3,61.03-27.65c2.44-1.09,5.21-1.09,7.65,0l61.19,27.65-7-67.3h.01c-.32-2.68,.51-5.37,2.27-7.41Z"/></svg>